<svg width="70" height="70" viewBox="0 0 70 70" fill="none" xmlns="http://www.w3.org/2000/svg">
<path fill-rule="evenodd" clip-rule="evenodd" d="M68 35C68 53.2254 53.2254 68 35 68C16.7746 68 2 53.2254 2 35C2 16.7746 16.7746 2 35 2C53.2254 2 68 16.7746 68 35ZM70 35C70 54.33 54.33 70 35 70C15.67 70 0 54.33 0 35C0 15.67 15.67 0 35 0C54.33 0 70 15.67 70 35ZM60 35C60 48.8071 48.8071 60 35 60C21.1929 60 10 48.8071 10 35C10 21.1929 21.1929 10 35 10C48.8071 10 60 21.1929 60 35ZM62 35C62 49.9117 49.9117 62 35 62C20.0883 62 8 49.9117 8 35C8 20.0883 20.0883 8 35 8C49.9117 8 62 20.0883 62 35Z" fill="#FF2B00"/>
<path d="M35.24 49.44C33.0267 49.44 31.12 49.0667 29.52 48.32C27.9467 47.5733 26.7333 46.5867 25.88 45.36C25.0533 44.1333 24.6133 42.8133 24.56 41.4V41.32C24.56 41.1067 24.64 40.9333 24.8 40.8C24.96 40.6667 25.16 40.6 25.4 40.6H29.12C29.7333 40.6 30.1333 40.8667 30.32 41.4C30.6933 42.5733 31.3067 43.44 32.16 44C33.04 44.56 34.0667 44.84 35.24 44.84C36.7333 44.84 37.9733 44.3867 38.96 43.48C39.9733 42.5733 40.48 41.3067 40.48 39.68C40.48 38.24 39.9733 37.0667 38.96 36.16C37.9733 35.2533 36.7333 34.8 35.24 34.8C34.44 34.8 33.7867 34.9067 33.28 35.12C32.7733 35.3333 32.28 35.6267 31.8 36C31.48 36.24 31.2267 36.4133 31.04 36.52C30.88 36.6 30.68 36.64 30.44 36.64H26.76C26.52 36.64 26.3067 36.56 26.12 36.4C25.96 36.2133 25.88 36 25.88 35.76L27.28 22.08C27.3067 21.76 27.4133 21.5067 27.6 21.32C27.8133 21.1067 28.08 21 28.4 21H43.44C43.7067 21 43.9333 21.0933 44.12 21.28C44.3067 21.4667 44.4 21.6933 44.4 21.96V24.64C44.4 24.9067 44.3067 25.1333 44.12 25.32C43.9333 25.5067 43.7067 25.6 43.44 25.6H31.88L31.24 32.12C32.5467 31.2133 34.2933 30.76 36.48 30.76C38.2133 30.76 39.8133 31.1333 41.28 31.88C42.7733 32.6 43.96 33.6533 44.84 35.04C45.72 36.4 46.16 37.9867 46.16 39.8C46.16 41.7467 45.7067 43.4533 44.8 44.92C43.8933 46.36 42.6133 47.48 40.96 48.28C39.3333 49.0533 37.4267 49.44 35.24 49.44Z" fill="#FF2B00"/>
</svg>
